
      <svg data-logo="logo" xmlns="http://www.w3.org/2000/svg" viewBox="0 0 164 43">
        <g id="logogram" transform="translate(0, 1) rotate(0) "><path d="M17.3991 3.08704L20.0562 0.429993L40.0562 20.43L20.0562 40.43L17.3991 37.7729L34.742 20.43L17.3991 3.08704Z" fill="#D41C1C"/><path d="M13.9305 6.55563L16.5876 3.89858L33.119 20.43L16.5876 36.9614L13.9305 34.3044L27.8049 20.43L13.9305 6.55563Z" fill="#D41C1C"/><path d="M0.0561537 20.43L13.119 7.36717L26.1818 20.43L13.119 33.4928L10.4619 30.8357L20.8677 20.43L13.119 12.6813L2.7132 23.087L0.0561537 20.43Z" fill="#D41C1C"/><path d="M13.119 14.3044L10.4619 16.9614L13.9305 20.43L6.99333 27.3672L9.65037 30.0242L19.2446 20.43L13.119 14.3044Z" fill="#D41C1C"/><path d="M6.1818 26.5556L3.52474 23.8986L9.62258 17.8007L12.2796 20.4578L6.1818 26.5556Z" fill="#D41C1C"/></g>
        <g id="logotype" transform="translate(47, 8.5)"><path fill="#ffffff" d="M18.81 26L8.41 26L8.41 1.50L18.46 1.50Q21.02 1.50 22.77 2.30Q24.52 3.11 25.41 4.53Q26.30 5.94 26.30 7.80L26.30 7.80Q26.30 9.65 25.50 10.91Q24.69 12.17 23.38 12.86Q22.07 13.54 20.49 13.64L20.49 13.64L21.05 13.26Q22.73 13.33 24.04 14.15Q25.36 14.97 26.11 16.34Q26.86 17.70 26.86 19.31L26.86 19.31Q26.86 21.27 25.92 22.78Q24.97 24.29 23.19 25.14Q21.40 26 18.81 26L18.81 26ZM13.14 15.25L13.14 22.15L18.04 22.15Q19.97 22.15 21.02 21.27Q22.07 20.40 22.07 18.75L22.07 18.75Q22.07 17.11 20.98 16.18Q19.90 15.25 17.97 15.25L17.97 15.25L13.14 15.25ZM13.14 5.28L13.14 11.72L17.69 11.72Q19.55 11.72 20.51 10.88Q21.47 10.04 21.47 8.50L21.47 8.50Q21.47 6.99 20.51 6.14Q19.55 5.28 17.66 5.28L17.66 5.28L13.14 5.28ZM37.26 26.42L37.26 26.42Q34.59 26.42 32.55 25.28Q30.50 24.14 29.36 22.10Q28.23 20.05 28.23 17.35L28.23 17.35Q28.23 14.59 29.36 12.47Q30.50 10.35 32.53 9.15Q34.56 7.94 37.26 7.94L37.26 7.94Q39.88 7.94 41.84 9.09Q43.80 10.25 44.89 12.21Q45.97 14.17 45.97 16.66L45.97 16.66Q45.97 17.00 45.97 17.44Q45.97 17.88 45.90 18.34L45.90 18.34L31.59 18.34L31.59 15.46L41.21 15.46Q41.11 13.75 40.00 12.77Q38.90 11.79 37.26 11.79L37.26 11.79Q36.07 11.79 35.05 12.33Q34.04 12.87 33.46 13.99Q32.88 15.11 32.88 16.83L32.88 16.83L32.88 17.84Q32.88 19.28 33.42 20.35Q33.97 21.41 34.95 21.99Q35.93 22.57 37.22 22.57L37.22 22.57Q38.52 22.57 39.37 22.01Q40.23 21.45 40.65 20.57L40.65 20.57L45.48 20.57Q44.99 22.22 43.84 23.55Q42.68 24.88 41 25.65Q39.32 26.42 37.26 26.42ZM52.73 26L48.00 26L48.00 0.80L52.73 0.80L52.73 26ZM60.32 26L55.60 26L55.60 8.36L60.32 8.36L60.32 26ZM57.98 5.94L57.98 5.94Q56.72 5.94 55.89 5.19Q55.07 4.44 55.07 3.28L55.07 3.28Q55.07 2.13 55.89 1.38Q56.72 0.62 57.98 0.62L57.98 0.62Q59.27 0.62 60.09 1.38Q60.92 2.13 60.92 3.28L60.92 3.28Q60.92 4.44 60.09 5.19Q59.27 5.94 57.98 5.94ZM73.73 26L63.33 26L63.33 1.50L73.38 1.50Q75.93 1.50 77.68 2.30Q79.43 3.11 80.32 4.53Q81.22 5.94 81.22 7.80L81.22 7.80Q81.22 9.65 80.41 10.91Q79.61 12.17 78.29 12.86Q76.98 13.54 75.41 13.64L75.41 13.64L75.97 13.26Q77.65 13.33 78.96 14.15Q80.27 14.97 81.02 16.34Q81.78 17.70 81.78 19.31L81.78 19.31Q81.78 21.27 80.83 22.78Q79.89 24.29 78.10 25.14Q76.32 26 73.73 26L73.73 26ZM68.06 15.25L68.06 22.15L72.96 22.15Q74.88 22.15 75.93 21.27Q76.98 20.40 76.98 18.75L76.98 18.75Q76.98 17.11 75.90 16.18Q74.81 15.25 72.89 15.25L72.89 15.25L68.06 15.25ZM68.06 5.28L68.06 11.72L72.61 11.72Q74.46 11.72 75.42 10.88Q76.39 10.04 76.39 8.50L76.39 8.50Q76.39 6.99 75.42 6.14Q74.46 5.28 72.57 5.28L72.57 5.28L68.06 5.28ZM92.17 26.42L92.17 26.42Q89.51 26.42 87.46 25.28Q85.42 24.14 84.28 22.10Q83.14 20.05 83.14 17.35L83.14 17.35Q83.14 14.59 84.28 12.47Q85.42 10.35 87.45 9.15Q89.48 7.94 92.17 7.94L92.17 7.94Q94.80 7.94 96.76 9.09Q98.72 10.25 99.80 12.21Q100.89 14.17 100.89 16.66L100.89 16.66Q100.89 17.00 100.89 17.44Q100.89 17.88 100.82 18.34L100.82 18.34L86.50 18.34L86.50 15.46L96.13 15.46Q96.02 13.75 94.92 12.77Q93.82 11.79 92.17 11.79L92.17 11.79Q90.98 11.79 89.97 12.33Q88.95 12.87 88.37 13.99Q87.80 15.11 87.80 16.83L87.80 16.83L87.80 17.84Q87.80 19.28 88.34 20.35Q88.88 21.41 89.86 21.99Q90.84 22.57 92.14 22.57L92.14 22.57Q93.43 22.57 94.29 22.01Q95.15 21.45 95.57 20.57L95.57 20.57L100.40 20.57Q99.91 22.22 98.75 23.55Q97.60 24.88 95.92 25.65Q94.24 26.42 92.17 26.42ZM107.64 26L102.92 26L102.92 0.80L107.64 0.80L107.64 26ZM115.23 26L110.51 26L110.51 8.36L115.23 8.36L115.23 26ZM112.89 5.94L112.89 5.94Q111.63 5.94 110.81 5.19Q109.98 4.44 109.98 3.28L109.98 3.28Q109.98 2.13 110.81 1.38Q111.63 0.62 112.89 0.62L112.89 0.62Q114.19 0.62 115.01 1.38Q115.83 2.13 115.83 3.28L115.83 3.28Q115.83 4.44 115.01 5.19Q114.19 5.94 112.89 5.94Z"/></g>
        
      </svg>
    